<svg width="25" height="25" viewBox="0 0 25 25" fill="none" xmlns="http://www.w3.org/2000/svg">
<path d="M20.3125 1.95312H6.25C5.732 1.95312 5.23521 2.1589 4.86893 2.52518C4.50265 2.89146 4.29688 3.38825 4.29688 3.90625V5.85938H3.125C2.8142 5.85938 2.51613 5.98284 2.29636 6.20261C2.07659 6.42238 1.95312 6.72045 1.95312 7.03125C1.95312 7.34205 2.07659 7.64012 2.29636 7.85989C2.51613 8.07966 2.8142 8.20312 3.125 8.20312H4.29688V11.3281H3.125C2.8142 11.3281 2.51613 11.4516 2.29636 11.6714C2.07659 11.8911 1.95312 12.1892 1.95312 12.5C1.95312 12.8108 2.07659 13.1089 2.29636 13.3286C2.51613 13.5484 2.8142 13.6719 3.125 13.6719H4.29688V16.7969H3.125C2.8142 16.7969 2.51613 16.9203 2.29636 17.1401C2.07659 17.3599 1.95312 17.6579 1.95312 17.9688C1.95312 18.2796 2.07659 18.5776 2.29636 18.7974C2.51613 19.0172 2.8142 19.1406 3.125 19.1406H4.29688V21.0938C4.29688 21.6118 4.50265 22.1085 4.86893 22.4748C5.23521 22.8411 5.732 23.0469 6.25 23.0469H20.3125C20.8305 23.0469 21.3273 22.8411 21.6936 22.4748C22.0599 22.1085 22.2656 21.6118 22.2656 21.0938V3.90625C22.2656 3.38825 22.0599 2.89146 21.6936 2.52518C21.3273 2.1589 20.8305 1.95312 20.3125 1.95312ZM19.9219 20.7031H6.64062V4.29688H19.9219V20.7031ZM9.84375 16.7354C10.2825 16.262 10.8144 15.8845 11.4059 15.6262C11.9974 15.368 12.6358 15.2347 13.2812 15.2347C13.9267 15.2347 14.5651 15.368 15.1566 15.6262C15.7481 15.8845 16.28 16.262 16.7188 16.7354C16.9301 16.9633 17.2233 17.0979 17.5339 17.1096C17.8445 17.1213 18.1471 17.0092 18.375 16.7979C18.6029 16.5865 18.7376 16.2933 18.7493 15.9827C18.761 15.6721 18.6488 15.3695 18.4375 15.1416C17.8974 14.5614 17.2632 14.0767 16.5615 13.708C17.0907 13.0824 17.4299 12.3186 17.5392 11.5065C17.6485 10.6945 17.5234 9.86812 17.1786 9.12485C16.8338 8.38158 16.2836 7.7524 15.593 7.31148C14.9024 6.87056 14.1001 6.63629 13.2808 6.63629C12.4614 6.63629 11.6591 6.87056 10.9685 7.31148C10.2779 7.7524 9.72775 8.38158 9.38292 9.12485C9.0381 9.86812 8.91298 10.6945 9.02231 11.5065C9.13164 12.3186 9.47087 13.0824 10 13.708C9.29881 14.077 8.66491 14.5617 8.125 15.1416C7.91366 15.3695 7.80151 15.6721 7.81323 15.9827C7.82495 16.2933 7.95958 16.5865 8.1875 16.7979C8.41542 17.0092 8.71796 17.1213 9.02857 17.1096C9.33918 17.0979 9.63241 16.9633 9.84375 16.7354ZM11.3281 10.9375C11.3281 10.5512 11.4427 10.1736 11.6573 9.8524C11.8719 9.53121 12.1769 9.28088 12.5338 9.13305C12.8907 8.98522 13.2834 8.94654 13.6623 9.0219C14.0412 9.09727 14.3892 9.28328 14.6623 9.55643C14.9355 9.82958 15.1215 10.1776 15.1968 10.5565C15.2722 10.9353 15.2335 11.328 15.0857 11.6849C14.9379 12.0418 14.6875 12.3469 14.3663 12.5615C14.0452 12.7761 13.6675 12.8906 13.2812 12.8906C12.7632 12.8906 12.2665 12.6848 11.9002 12.3186C11.5339 11.9523 11.3281 11.4555 11.3281 10.9375Z" fill="#00ADEF"/>
</svg>
