<svg width="22" height="23" viewBox="0 0 22 23" fill="none" xmlns="http://www.w3.org/2000/svg">
<g clip-path="url(#clip0_1_2)">
<path d="M21.7855 2.88646H3.85058L3.81246 2.56667C3.73444 1.90196 3.41613 1.28909 2.91788 0.844249C2.41963 0.399409 1.77609 0.153525 1.10924 0.153214L0 0.153214V1.97538H1.10924C1.33158 1.97541 1.54617 2.05733 1.71231 2.20562C1.87846 2.35391 1.9846 2.55824 2.01062 2.77986L3.44937 15.0503C3.52739 15.715 3.84569 16.3279 4.34394 16.7727C4.84219 17.2176 5.48574 17.4634 6.15258 17.4638H18.1546V15.6416H6.15258C5.93011 15.6415 5.7154 15.5595 5.54923 15.411C5.38307 15.2625 5.27701 15.058 5.2512 14.8362L5.13229 13.8194H19.8211L21.7855 2.88646ZM18.3034 11.9973H4.91898L4.0648 4.70862H19.6133L18.3034 11.9973Z" fill="white"/>
<path d="M6.35409 22.0192C7.35674 22.0192 8.16955 21.2034 8.16955 20.197C8.16955 19.1907 7.35674 18.3748 6.35409 18.3748C5.35145 18.3748 4.53864 19.1907 4.53864 20.197C4.53864 21.2034 5.35145 22.0192 6.35409 22.0192Z" fill="white"/>
<path d="M15.4314 22.0192C16.434 22.0192 17.2468 21.2034 17.2468 20.197C17.2468 19.1907 16.434 18.3748 15.4314 18.3748C14.4287 18.3748 13.6159 19.1907 13.6159 20.197C13.6159 21.2034 14.4287 22.0192 15.4314 22.0192Z" fill="white"/>
</g>
<defs>
<clipPath id="clip0_1_2">
<rect width="21.7855" height="21.866" fill="white" transform="translate(0 0.153214)"/>
</clipPath>
</defs>
</svg>
