<svg width="29" height="29" viewBox="0 0 29 29" fill="none" xmlns="http://www.w3.org/2000/svg">
<path d="M23.3645 9.59183L16.3551 3.2852C15.7126 2.69536 14.8808 2.36926 14.0187 2.36926C13.1566 2.36926 12.3248 2.69536 11.6822 3.2852L4.6729 9.59183C4.30183 9.93243 4.00572 10.3503 3.80429 10.8175C3.60286 11.2847 3.50072 11.7906 3.50467 12.3015V22.7806C3.50467 23.7346 3.87391 24.6495 4.53117 25.324C5.18842 25.9986 6.07985 26.3775 7.00935 26.3775H21.028C21.9575 26.3775 22.849 25.9986 23.5062 25.324C24.1635 24.6495 24.5327 23.7346 24.5327 22.7806V12.2895C24.535 11.7806 24.4321 11.277 24.2307 10.812C24.0293 10.347 23.7341 9.93109 23.3645 9.59183ZM16.3551 23.9796H11.6822V17.9847C11.6822 17.6667 11.8053 17.3617 12.0244 17.1369C12.2435 16.912 12.5406 16.7857 12.8505 16.7857H15.1869C15.4967 16.7857 15.7939 16.912 16.013 17.1369C16.2321 17.3617 16.3551 17.6667 16.3551 17.9847V23.9796ZM22.1963 22.7806C22.1963 23.0986 22.0732 23.4036 21.8541 23.6284C21.635 23.8533 21.3379 23.9796 21.028 23.9796H18.6916V17.9847C18.6916 17.0307 18.3223 16.1158 17.6651 15.4413C17.0078 14.7667 16.1164 14.3877 15.1869 14.3877H12.8505C11.921 14.3877 11.0295 14.7667 10.3723 15.4413C9.71503 16.1158 9.34579 17.0307 9.34579 17.9847V23.9796H7.00935C6.69951 23.9796 6.40237 23.8533 6.18329 23.6284C5.9642 23.4036 5.84112 23.0986 5.84112 22.7806V12.2895C5.84133 12.1193 5.87686 11.9511 5.94535 11.796C6.01383 11.641 6.11371 11.5027 6.23832 11.3903L13.2477 5.09566C13.4608 4.90344 13.7349 4.79743 14.0187 4.79743C14.3025 4.79743 14.5765 4.90344 14.7897 5.09566L21.7991 11.3903C21.9237 11.5027 22.0235 11.641 22.092 11.796C22.1605 11.9511 22.1961 12.1193 22.1963 12.2895V22.7806Z" fill="#FFFEFE"/>
</svg>
