<svg width="28" height="28" viewBox="0 0 28 28" fill="none" xmlns="http://www.w3.org/2000/svg">
<path d="M6.99999 22.1666V11.6666C6.99999 9.81011 7.73749 8.02963 9.05024 6.71688C10.363 5.40412 12.1435 4.66663 14 4.66663C15.8565 4.66663 17.637 5.40412 18.9497 6.71688C20.2625 8.02963 21 9.81011 21 11.6666V22.1666M6.99999 22.1666H21M6.99999 22.1666H4.66666M21 22.1666H23.3333M12.8333 25.6666H15.1667" stroke="white" stroke-width="2" stroke-linecap="round" stroke-linejoin="round"/>
<path d="M14 4.66665C14.6443 4.66665 15.1666 4.14431 15.1666 3.49998C15.1666 2.85565 14.6443 2.33331 14 2.33331C13.3556 2.33331 12.8333 2.85565 12.8333 3.49998C12.8333 4.14431 13.3556 4.66665 14 4.66665Z" stroke="white" stroke-width="2"/>
</svg>
